<?xml version="1.0" encoding="utf-8"?>
<!-- Generator: Adobe Illustrator 23.0.0, SVG Export Plug-In . SVG Version: 6.00 Build 0)  -->
<svg version="1.1" id="레이어_1" xmlns="http://www.w3.org/2000/svg" xmlns:xlink="http://www.w3.org/1999/xlink" x="0px"
	 y="0px" viewBox="0 0 233 113" style="enable-background:new 0 0 233 113;" xml:space="preserve">
<style type="text/css">
	.st0{fill:#F68472;}
	.st1{fill:#0B20FC;}
</style>
<g>
	<path class="st0" d="M49.98,95.21c-0.86,0-1.71-0.08-2.56-0.24c-5.93-1.66-9.43-5.24-10.5-10.74c-0.48-2.35-0.72-4.81-0.72-7.37
		c0-3.47,0.59-7.85,1.76-13.15c1.17-5.29,2.64-10.63,4.41-16.03c0.8-2.51,1.44-4.67,1.92-6.49c2.62-10.1,3.93-17.77,3.93-23
		c0-0.85-0.08-2.18-0.24-3.97c-0.16-1.79-1.07-2.77-2.72-2.93c-2.24,0.27-5.53,3.5-9.86,9.7c-4.33,6.2-8.18,13.2-11.54,21
		c-2.78,6.46-4.17,11.97-4.17,16.51c0,0.91,0.05,1.79,0.16,2.64C10.87,58.79,5.61,55.08,4.06,50c-0.48-1.6-0.72-3.26-0.72-4.97
		c0-3.58,1.39-7.84,4.17-12.78c2.78-4.94,6.99-9.87,12.62-14.79S31.28,8.99,36.68,6.8c5.77-2.19,10.61-3.29,14.51-3.29
		c1.76,0,4.13,0.47,7.09,1.4c2.96,0.93,5.28,3.62,6.93,8.06c0.64,2.14,0.96,4.7,0.96,7.69c0,3.31-0.59,8.12-1.76,14.43
		c-1.18,6.31-2.91,13.68-5.21,22.12c-3.15,11.92-4.73,19.51-4.73,22.76c0,2.35,0.59,3.53,1.76,3.53c2.62,0,5.54-2.23,8.78-6.69
		c3.23-4.46,6.41-9.95,9.54-16.47c3.13-6.52,5.89-12.77,8.3-18.75c2.4-5.98,4.11-10.39,5.13-13.23l0.32-0.72
		c2.51-7.64,4.44-13.23,5.77-16.75c1.17-2.73,3.15-4.41,5.93-5.05c1.28-0.32,2.59-0.48,3.93-0.48c1.55,0,3.5,0.29,5.85,0.88
		c2.35,0.59,4.49,1.63,6.41,3.13c-1.55,2.46-4.1,8.2-7.65,17.23c-3.55,9.03-6.91,18.54-10.06,28.53
		c-3.53,11.22-5.29,19.24-5.29,24.05c0,2.83,0.37,4.9,1.12,6.21c0.75,1.31,1.79,2.36,3.13,3.17c-2.57,1.82-4.89,2.72-6.97,2.72
		l-1.44-0.08c-5.02-0.64-8.07-3.82-9.14-9.54c-0.54-2.62-0.8-5.48-0.8-8.58c0-3.74,0.37-7.83,1.12-12.26
		c-2.83,6.79-6.05,12.92-9.66,18.4c-3.61,5.48-7.39,9.68-11.34,12.62C56.1,94.09,53.03,95.21,49.98,95.21"/>
	<g>
		<g>
			<g>
				<path class="st1" d="M102.35,86.87l3.61-13.71c4.75-2.57,10.14-5.98,16.15-10.26c6.01-4.27,11.05-8.84,15.11-13.71
					c3.26-3.9,4.89-7.61,4.89-11.14c0-0.91-0.11-1.79-0.32-2.65c-0.48-1.12-1.63-1.68-3.45-1.68c-0.8,0-2.35,0.23-4.65,0.68
					c-2.3,0.46-5.26,2.43-8.9,5.93c-3.63,3.5-6.01,8.67-7.13,15.51c-2.67-2.67-4.3-6.25-4.89-10.74c-0.11-0.96-0.16-1.95-0.16-2.97
					c0-9.62,4.6-17.31,13.79-23.08c6.95-3.95,14-5.93,21.16-5.93c2.19,0,4.19,0.21,6.01,0.64c6.41,1.66,10.02,5,10.82,10.02
					c0.16,0.96,0.24,1.98,0.24,3.05c0,4.17-1.47,9.09-4.41,14.75c-2.94,5.67-7.25,11.34-12.94,17.03
					c-5.69,5.69-11.8,10.09-18.32,13.18c1.71,0.48,3.45,0.72,5.21,0.72c0.85,0,2.14-0.12,3.85-0.36c1.71-0.24,3.89-0.71,6.53-1.4
					c2.64-0.69,5.3-1.23,7.98-1.6l-0.24,0.8c-0.69,3.21-1.62,6.22-2.76,9.06c-1.15,2.83-2.95,4.97-5.41,6.41
					c-1.5,0.91-3.4,1.36-5.69,1.36c-1.44,0-3.05-0.19-4.81-0.56c-5.5-1.28-11.11-1.92-16.83-1.92
					C111.92,84.31,107.11,85.16,102.35,86.87"/>
			</g>
			<g>
				<g>
					<path class="st1" d="M171.57,84.15h-0.32c-4.54-0.48-7.59-2.51-9.14-6.09c-1.18-2.72-1.76-5.88-1.76-9.46
						c0-1.28,0.17-3.58,0.52-6.89c0.35-3.31,1.37-7.75,3.09-13.31c1.71-5.56,3.53-10.55,5.45-14.99c1.23-2.4,3.23-3.9,6.01-4.49
						c1.34-0.27,2.7-0.4,4.09-0.4c1.5,0,3.41,0.25,5.73,0.76c2.32,0.51,4.48,1.43,6.45,2.77c-1.6,2.19-3.49,5.56-5.65,10.1
						c-2.16,4.54-4.17,9.35-6.01,14.43c-1.84,5.08-3.14,9.46-3.89,13.15c-0.27,1.44-0.4,2.62-0.4,3.53c0,1.71,0.48,2.57,1.44,2.57
						c1.6,0,3.45-1.15,5.53-3.45c2.89-3.31,6.36-8.63,10.42-15.95c0.64-1.33,1.09-2,1.36-2c0.21,0,0.35,0.3,0.4,0.88
						c-0.37,4.38-1.84,8.82-4.41,13.3c-2.57,4.49-5.57,8.2-9.02,11.14C178.02,82.68,174.72,84.15,171.57,84.15 M188,25.56
						c-0.91,0-1.92-0.08-3.05-0.24c-5.88-0.64-8.82-2.7-8.82-6.17c0-2.3,0.91-4.65,2.73-7.05c1.5-1.98,4.01-2.97,7.53-2.97h1.04
						c4.11,0.48,6.89,1.31,8.34,2.48c1.17,0.91,1.76,2.14,1.76,3.69l-0.08,1.12c-0.27,3.95-1.82,6.68-4.65,8.17
						C191.63,25.24,190.03,25.56,188,25.56"/>
				</g>
			</g>
			<g>
				<g>
					<path class="st1" d="M189.04,109.2h-0.24c-4.44-0.48-7.24-2.78-8.42-6.89c-0.64-2.24-0.96-4.76-0.96-7.53
						c0-6.79,1.82-15.79,5.45-27.01c3.47-10.85,0.01-4.34,4.29-13.47c1.23-2.4,3.26-3.9,6.09-4.49c1.28-0.27,2.59-0.4,3.93-0.4
						c1.55,0,3.5,0.27,5.85,0.8c2.35,0.53,4.46,1.44,6.33,2.72c-1.02,1.34-2.66,4.24-4.93,8.7c-2.27,4.46,2.59-6.85-0.08-0.91
						c4.27-4.86,8.31-7.38,12.1-7.53c7.7,0.27,11.54,4.81,11.54,13.63c0,0.32-0.04,1.63-0.12,3.93c-0.08,2.3-0.76,5.85-2.04,10.66
						c-1.12,4.44-2.87,8.58-5.25,12.42c-2.38,3.85-5.31,6.99-8.78,9.42c-3.47,2.43-7.4,3.65-11.78,3.65c-2.08,0-3.85-0.11-5.29-0.32
						C194.01,108.32,191.45,109.2,189.04,109.2 M197.46,100.86c1.98-0.21,3.95-1.84,5.93-4.89c1.98-3.05,3.69-6.65,5.13-10.82
						c2.19-6.41,3.29-11.46,3.29-15.15c0-0.69-0.07-1.7-0.2-3.01c-0.13-1.31-0.98-1.96-2.53-1.96c-1.44,0-3.1,1.32-4.97,3.97
						c-1.87,2.64-3.61,5.86-5.21,9.66c-2.89,7.21-4.33,13.09-4.33,17.63C194.57,99.34,195.53,100.86,197.46,100.86"/>
				</g>
			</g>
		</g>
	</g>
</g>
</svg>
